<svg xmlns="http://www.w3.org/2000/svg" version="1.1" xmlns:xlink="http://www.w3.org/1999/xlink" xmlns:svgjs="http://svgjs.dev/svgjs" width="1000" height="623" viewBox="0 0 1000 623"><g transform="matrix(1,0,0,1,-0.6060606060606233,0.2522267206477409)"><svg viewBox="0 0 396 247" data-background-color="#ffffff" preserveAspectRatio="xMidYMid meet" height="623" width="1000" xmlns="http://www.w3.org/2000/svg" xmlns:xlink="http://www.w3.org/1999/xlink"><g id="tight-bounds" transform="matrix(1,0,0,1,0.2400000000000091,-0.09999999999999432)"><svg viewBox="0 0 395.52 247.2" height="247.2" width="395.52"><g><svg></svg></g><g><svg viewBox="0 0 395.52 247.2" height="247.2" width="395.52"><g transform="matrix(1,0,0,1,75.54432,51.23972671037373)"><svg viewBox="0 0 244.43135999999998 144.72054657925253" height="144.72054657925253" width="244.43135999999998"><g><svg viewBox="0 0 244.43135999999998 144.72054657925253" height="144.72054657925253" width="244.43135999999998"><g><svg viewBox="0 0 244.43135999999998 144.72054657925253" height="144.72054657925253" width="244.43135999999998"><g><svg viewBox="0 0 244.43135999999998 144.72054657925253" height="144.72054657925253" width="244.43135999999998"><g><svg viewBox="0 0 244.43135999999998 144.72054657925253" height="144.72054657925253" width="244.43135999999998"><g><svg viewBox="0 0 244.43135999999998 104.09047322033895" height="104.09047322033895" width="244.43135999999998"><g transform="matrix(1,0,0,1,0,0)"><svg width="244.43135999999998" viewBox="-1.5499999523162842 -35.900001525878906 94.38999938964844 40.20000076293945" height="104.09047322033895" data-palette-color="#233565"><path d="M3.85 4.3L3.85 4.3Q2.7 4.3 1.43 3.85 0.15 3.4-0.7 2-1.55 0.6-1.55-2.2L-1.55-2.2Q-1.55-4.15-1.1-6.08-0.65-8 0.23-9.3 1.1-10.6 2.25-10.6L2.25-10.6Q2.85-10.6 3.65-10.2L3.65-10.2Q2.75-7.9 2.3-5.9 1.85-3.9 1.85-2.2L1.85-2.2Q1.85 0.05 2.65 1.3 3.45 2.55 5 2.55L5 2.55Q6.3 2.55 7.33 1.45 8.35 0.35 9.45-2.7L9.45-2.7Q10.25-4.9 11.13-8.03 12-11.15 12.88-14.73 13.75-18.3 14.55-21.83 15.35-25.35 16-28.35 16.65-31.35 17-33.35L17-33.35Q14.55-33.35 12.88-33.25 11.2-33.15 9.85-32.95 8.5-32.75 6.9-32.35L6.9-32.35Q7.15-34.05 9.08-34.98 11-35.9 15.05-35.9L15.05-35.9Q17.05-35.9 19.1-35.7 21.15-35.5 22.88-35.27 24.6-35.05 25.5-34.85L25.5-34.85Q24.95-33.9 23.7-33.65 22.45-33.4 21.65-33.4L21.65-33.4Q20.65-33.4 19.78-33.38 18.9-33.35 18.1-33.35L18.1-33.35Q18.65-32.95 18.9-32.25 19.15-31.55 19.15-31L19.15-31Q19.15-30.35 18.8-28.13 18.45-25.9 17.8-22.75 17.15-19.6 16.25-16.05 15.35-12.5 14.3-9.1 13.25-5.7 12.05-3.05L12.05-3.05Q10.75-0.05 9.43 1.53 8.1 3.1 6.73 3.7 5.35 4.3 3.85 4.3ZM22.9 1.5L22.9 1.5Q21.2 1.5 20.17-0.03 19.15-1.55 19.15-3.55L19.15-3.55Q19.15-5 19.62-6.9 20.1-8.8 20.8-10.65 21.5-12.5 22.25-13.7 23-14.9 23.55-14.9L23.55-14.9Q23.8-14.9 24.4-14.63 25-14.35 25.4-13.9L25.4-13.9Q24.85-13.05 24.05-11.3 23.25-9.55 22.65-7.55 22.05-5.55 22.05-3.85L22.05-3.85Q22.05-3.45 22.15-2.63 22.25-1.8 22.65-1.15 23.05-0.5 23.85-0.5L23.85-0.5Q24.8-0.5 25.8-1.48 26.8-2.45 27.82-4 28.85-5.55 29.8-7.35 30.75-9.15 31.57-10.8 32.4-12.45 32.95-13.55L32.95-13.55Q33.25-13.5 33.82-13.35 34.4-13.2 34.87-12.95 35.35-12.7 35.35-12.25L35.35-12.25Q35.35-12.05 34.85-10.93 34.35-9.8 33.67-8.18 33-6.55 32.5-4.9 32-3.25 32-2L32-2Q32-1.1 32.37-0.55 32.75 0 33.65 0L33.65 0Q34.7 0 36.2-0.95 37.7-1.9 39.25-3.73 40.8-5.55 42-8.1L42-8.1 42.65-7.65Q41.6-4.95 39.9-2.88 38.2-0.8 36.3 0.35 34.4 1.5 32.6 1.5L32.6 1.5Q31.3 1.5 30.52 1 29.75 0.5 29.42-0.35 29.1-1.2 29.1-2.2L29.1-2.2Q29.1-2.8 29.2-3.43 29.3-4.05 29.45-4.7L29.45-4.7Q28.55-3.05 27.5-1.63 26.45-0.2 25.3 0.65 24.15 1.5 22.9 1.5ZM45.3 2.3L45.3 2.3Q43.15 2.3 42 1.05 40.84-0.2 40.84-2.65L40.84-2.65Q40.84-4.85 41.67-8.08 42.5-11.3 43.75-14.7L43.75-14.7Q43.25-14.8 42.8-14.88 42.34-14.95 41.95-15.1L41.95-15.1 41.95-16Q42.34-15.95 42.9-15.9 43.45-15.85 44.15-15.8L44.15-15.8Q45.2-18.5 46.4-21.03 47.59-23.55 48.77-25.53 49.95-27.5 51.02-28.68 52.09-29.85 52.84-29.85L52.84-29.85Q53.25-29.85 53.57-29.58 53.9-29.3 53.9-28.75L53.9-28.75Q53.9-27.9 52.84-25.98 51.8-24.05 50.25-21.4 48.7-18.75 47.25-15.65L47.25-15.65Q47.7-15.65 48.17-15.65 48.65-15.65 49.09-15.65L49.09-15.65Q50.75-15.65 52.57-15.7 54.4-15.75 56.25-15.95L56.25-15.95 56.25-15.05Q53.5-14.75 51.32-14.6 49.15-14.45 47.45-14.45L47.45-14.45Q47.25-14.45 47.07-14.45 46.9-14.45 46.7-14.45L46.7-14.45Q45.55-11.8 44.75-9 43.95-6.2 43.95-3.55L43.95-3.55Q43.95-1.4 44.59-0.48 45.25 0.45 46.75 0.45L46.75 0.45Q49.34 0.45 51.84-1.85 54.34-4.15 56.25-8.1L56.25-8.1 56.9-7.6Q55.7-4.8 53.87-2.55 52.05-0.3 49.84 1 47.65 2.3 45.3 2.3ZM59.54 2.3L59.54 2.3Q57.39 2.3 56.24 1.05 55.09-0.2 55.09-2.65L55.09-2.65Q55.09-4.85 55.92-8.08 56.74-11.3 57.99-14.7L57.99-14.7Q57.49-14.8 57.04-14.88 56.59-14.95 56.19-15.1L56.19-15.1 56.19-16Q56.59-15.95 57.14-15.9 57.69-15.85 58.39-15.8L58.39-15.8Q59.44-18.5 60.64-21.03 61.84-23.55 63.02-25.53 64.19-27.5 65.27-28.68 66.34-29.85 67.09-29.85L67.09-29.85Q67.49-29.85 67.82-29.58 68.14-29.3 68.14-28.75L68.14-28.75Q68.14-27.9 67.09-25.98 66.04-24.05 64.49-21.4 62.94-18.75 61.49-15.65L61.49-15.65Q61.94-15.65 62.42-15.65 62.89-15.65 63.34-15.65L63.34-15.65Q64.99-15.65 66.82-15.7 68.64-15.75 70.49-15.95L70.49-15.95 70.49-15.05Q67.74-14.75 65.57-14.6 63.39-14.45 61.69-14.45L61.69-14.45Q61.49-14.45 61.32-14.45 61.14-14.45 60.94-14.45L60.94-14.45Q59.79-11.8 58.99-9 58.19-6.2 58.19-3.55L58.19-3.55Q58.19-1.4 58.84-0.48 59.49 0.45 60.99 0.45L60.99 0.45Q63.59 0.45 66.09-1.85 68.59-4.15 70.49-8.1L70.49-8.1 71.14-7.6Q69.94-4.8 68.12-2.55 66.29-0.3 64.09 1 61.89 2.3 59.54 2.3ZM71.94 2.35L71.94 2.35Q70.39 2.35 69.32 1.33 68.24 0.3 68.24-1.8L68.24-1.8Q68.24-3.6 69.04-5.68 69.84-7.75 71.24-9.78 72.64-11.8 74.42-13.48 76.19-15.15 78.17-16.15 80.14-17.15 82.09-17.15L82.09-17.15Q84.04-17.15 85.34-16.13 86.64-15.1 86.64-13.4L86.64-13.4Q86.64-12.15 85.97-11.7 85.29-11.25 84.19-11.25L84.19-11.25Q84.29-11.65 84.37-12.13 84.44-12.6 84.44-13L84.44-13Q84.44-14.15 83.89-14.98 83.34-15.8 81.99-15.8L81.99-15.8Q80.59-15.8 79.14-14.83 77.69-13.85 76.34-12.23 74.99-10.6 73.94-8.7 72.89-6.8 72.29-4.95 71.69-3.1 71.69-1.65L71.69-1.65Q71.69 0.3 73.04 0.3L73.04 0.3Q74.19 0.3 75.54-0.78 76.89-1.85 78.32-3.53 79.74-5.2 81.04-7 82.34-8.8 83.34-10.3L83.34-10.3Q83.54-10.6 83.59-10.6L83.59-10.6Q83.89-10.55 84.37-10.4 84.84-10.25 85.19-10 85.54-9.75 85.54-9.35L85.54-9.35Q85.54-8.9 85.09-8.13 84.64-7.35 84.09-6.35 83.54-5.35 83.09-4.33 82.64-3.3 82.64-2.4L82.64-2.4Q82.64-1.65 83.04-0.93 83.44-0.2 84.34-0.2L84.34-0.2Q85.69-0.2 87.89-2.18 90.09-4.15 92.34-8.1L92.34-8.1 92.84-7.6Q91.79-4.9 90.14-2.85 88.49-0.8 86.62 0.35 84.74 1.5 82.94 1.5L82.94 1.5Q81.09 1.5 80.22 0.4 79.34-0.7 79.34-2L79.34-2Q79.34-2.3 79.39-2.68 79.44-3.05 79.49-3.45L79.49-3.45Q77.34-0.55 75.57 0.9 73.79 2.35 71.94 2.35Z" opacity="1" transform="matrix(1,0,0,1,0,0)" fill="#fff" class="undefined-text-0" data-fill-palette-color="primary" id="text-0"></path></svg></g></svg></g><g transform="matrix(1,0,0,1,0,128.6637357763037)"><svg viewBox="0 0 143.50565145599998 16.056810802948842" height="16.056810802948842" width="143.50565145599998"><g transform="matrix(1,0,0,1,0,0)"><svg width="143.50565145599998" viewBox="3 -36.70000076293945 428.04998779296875 47.900001525878906" height="16.056810802948842" data-palette-color="#233565"><path d="M5.85-6.15L5.85-6.15Q5.85-6.15 6.2-22L6.2-22Q6.2-28.3 5.45-30.1L5.45-30.1 3-33.9 3.15-34.65Q6.7-35.45 13.35-35.45L13.35-35.45Q14.3-34 14.3-30.08 14.3-26.15 13.8-19.53 13.3-12.9 13.3-9.3 13.3-5.7 15-5.7L15-5.7Q16-5.7 17.9-7.33 19.8-8.95 21.15-10.85L21.15-10.85Q22.25-22.15 22.25-26.1 22.25-30.05 21.15-33.45L21.15-33.45Q23.8-34.8 29.85-35.5L29.85-35.5Q30.4-33.7 30.4-30.43 30.4-27.15 29.38-19.05 28.35-10.95 28.35-8.33 28.35-5.7 29.88-5.7 31.4-5.7 34-8.6 36.6-11.5 38.78-15.83 40.95-20.15 41.2-23.65L41.2-23.65 35.9-26.75Q36.25-29.75 37.33-31.93 38.4-34.1 39.3-34.8L39.3-34.8 40.2-35.5Q43.25-35.5 44.88-33.93 46.5-32.35 46.5-30.2L46.5-30.2Q46.5-26.15 44.48-20.75 42.45-15.35 39.48-10.65 36.5-5.95 32.7-2.68 28.9 0.6 25.7 0.6L25.7 0.6Q23.8 0.6 22.33-1.2 20.85-3 20.8-5.8L20.8-5.8Q18.6-2.8 16.15-1.1 13.7 0.6 11.45 0.6 9.2 0.6 7.53-1.28 5.85-3.15 5.85-6.15ZM45.85-8.65L45.85-8.65Q45.85-14.9 49.62-18.53 53.4-22.15 58.2-22.15L58.2-22.15Q61.15-22.15 63.05-20.7 64.95-19.25 64.95-16.82 64.95-14.4 63.72-12.75 62.5-11.1 60.75-10.2L60.75-10.2Q57.2-8.45 54.25-8L54.25-8 53.05-7.85Q53.4-3.15 56.9-3.15L56.9-3.15Q58.1-3.15 59.45-3.75 60.8-4.35 61.55-4.95L61.55-4.95 62.3-5.55 63.5-3.95Q63.1-3.4 61.9-2.5 60.7-1.6 59.65-1L59.65-1Q56.75 0.6 53.3 0.6 49.85 0.6 47.85-1.85 45.85-4.3 45.85-8.65ZM53-10.3Q55.55-10.75 57.05-12.45 58.55-14.15 58.55-16.85 58.55-19.55 56.95-19.55L56.95-19.55Q55.05-19.55 54.02-16.32 53-13.1 53-10.3L53-10.3ZM77.99 0.25L77.99 0.25Q77.04 0.25 76.69 0.2L76.69 0.2Q77.04-2.7 79.77-14.53 82.49-26.35 82.49-29.5L82.49-29.5Q82.49-30.1 81.79-31.08 81.09-32.05 80.39-32.7L80.39-32.7 79.74-33.4 79.89-34.2Q86.74-35.5 94.39-35.5L94.39-35.5Q103.59-35.5 103.59-28.25L103.59-28.25Q103.59-24.7 101.82-21.78 100.04-18.85 96.29-17.2L96.29-17.2Q99.09-7.85 101.09-5.1L101.09-5.1Q101.99-3.95 102.49-3.95L102.49-3.95Q103.39-3.95 105.29-4.85L105.29-4.85 105.89-5.15 107.04-3.3Q105.19-1.6 102.77-0.5 100.34 0.6 98.22 0.6 96.09 0.6 94.72-1.23 93.34-3.05 92.22-6.6 91.09-10.15 89.94-15.7L89.94-15.7Q88.34-15.6 87.49-15.6L87.49-15.6Q84.94-4.65 84.69-0.8L84.69-0.8Q82.54 0.25 77.99 0.25ZM88.24-19L89.44-19Q92.44-19 94.17-21.68 95.89-24.35 95.89-28.05L95.89-28.05Q95.89-30 95.19-31.2 94.49-32.4 93.09-32.4L93.09-32.4Q92.49-32.4 91.67-32.23 90.84-32.05 90.84-32L90.84-32Q90.04-26.85 88.24-19L88.24-19ZM107.44-8.65L107.44-8.65Q107.44-14.9 111.22-18.53 114.99-22.15 119.79-22.15L119.79-22.15Q122.74-22.15 124.64-20.7 126.54-19.25 126.54-16.82 126.54-14.4 125.32-12.75 124.09-11.1 122.34-10.2L122.34-10.2Q118.79-8.45 115.84-8L115.84-8 114.64-7.85Q114.99-3.15 118.49-3.15L118.49-3.15Q119.69-3.15 121.04-3.75 122.39-4.35 123.14-4.95L123.14-4.95 123.89-5.55 125.09-3.95Q124.69-3.4 123.49-2.5 122.29-1.6 121.24-1L121.24-1Q118.34 0.6 114.89 0.6 111.44 0.6 109.44-1.85 107.44-4.3 107.44-8.65ZM114.59-10.3Q117.14-10.75 118.64-12.45 120.14-14.15 120.14-16.85 120.14-19.55 118.54-19.55L118.54-19.55Q116.64-19.55 115.62-16.32 114.59-13.1 114.59-10.3L114.59-10.3ZM142.49-20.7L142.49-20.7Q142.59-20.8 143.04-22L143.04-22Q145.39-22 149.34-20.6L149.34-20.6Q148.09-16.45 147.34-11.93 146.59-7.4 146.59-5.48 146.59-3.55 146.99-3.55L146.99-3.55Q147.29-3.55 149.19-4.5L149.19-4.5 149.79-4.8 150.69-3.05Q150.24-2.65 149.51-2.05 148.79-1.45 146.79-0.43 144.79 0.6 143.19 0.6L143.19 0.6Q140.09 0.6 139.59-2.2L139.59-2.2Q136.39 0.6 133.81 0.6 131.24 0.6 129.46-1.4 127.69-3.4 127.69-7.7L127.69-7.7Q127.69-14.4 130.44-18.28 133.19-22.15 137.09-22.15L137.09-22.15Q139.89-22.15 142.49-20.7ZM136.79-3.65L136.79-3.65Q137.99-3.65 139.49-4.6L139.49-4.6Q139.84-11.65 141.84-18.55L141.84-18.55Q140.34-19.2 139.29-19.2L139.29-19.2Q137.49-19.2 136.21-15.68 134.94-12.15 134.94-7.9 134.94-3.65 136.79-3.65ZM155.46 0.6Q153.74 0.6 152.61-0.55 151.49-1.7 151.49-3.78 151.49-5.85 153.96-17.03 156.44-28.2 156.44-33.15L156.44-33.15 156.14-35.35Q160.04-36.7 163.44-36.7L163.44-36.7Q163.94-36 163.94-34.25L163.94-34.25Q163.94-30.25 161.41-18.78 158.89-7.3 158.89-5.43 158.89-3.55 159.34-3.55L159.34-3.55 162.84-4.8 163.74-3.05Q162.04-1.7 159.61-0.55 157.19 0.6 155.46 0.6ZM175.23-19.05Q175.23-16.95 173.88-11.83 172.53-6.7 172.53-5.13 172.53-3.55 172.98-3.55L172.98-3.55Q173.28-3.55 175.28-4.5L175.28-4.5 175.88-4.8 176.73-3.05Q176.28-2.65 175.53-2.05 174.78-1.45 172.73-0.43 170.68 0.6 168.93 0.6 167.18 0.6 166.18-0.48 165.18-1.55 165.18-3.38 165.18-5.2 166.43-9.88 167.68-14.55 167.68-15.95L167.68-15.95Q167.68-18.05 166.38-19.9L166.38-19.9 165.93-20.5 165.98-21.15Q168.63-21.9 174.58-21.9L174.58-21.9Q175.23-21.15 175.23-19.05ZM169.53-27.38Q168.53-28.35 168.53-30 168.53-31.65 169.91-32.9 171.28-34.15 173.08-34.15 174.88-34.15 175.88-33.15 176.88-32.15 176.88-30.53 176.88-28.9 175.46-27.65 174.03-26.4 172.28-26.4 170.53-26.4 169.53-27.38ZM193.93-6.55L193.93-6.55Q193.93-3.4 191.16-1.4 188.38 0.6 184.83 0.6 181.28 0.6 179.21-0.9 177.13-2.4 177.13-3.55L177.13-3.55Q177.13-4.25 178.88-5.83 180.63-7.4 181.83-7.75L181.83-7.75Q184.33-5.9 185.93-1.9L185.93-1.9Q187.78-2.05 187.78-3.65L187.78-3.65Q187.78-5.95 183.73-10.18 179.68-14.4 179.68-16.9 179.68-19.4 181.93-20.78 184.18-22.15 187.36-22.15 190.53-22.15 192.13-21.03 193.73-19.9 193.73-17.98 193.73-16.05 190.68-12.65L190.68-12.65Q191.03-12.3 191.58-11.73 192.13-11.15 193.03-9.55 193.93-7.95 193.93-6.55ZM189.13-14.4Q191.23-16.2 191.23-17.95 191.23-19.7 188.83-19.7L188.83-19.7Q187.68-19.7 186.93-19.23 186.18-18.75 186.18-18.15L186.18-18.15Q186.18-17.05 188.38-15.05L188.38-15.05 189.13-14.4ZM196.03-8.65L196.03-8.65Q196.03-14.9 199.8-18.53 203.58-22.15 208.38-22.15L208.38-22.15Q211.33-22.15 213.23-20.7 215.13-19.25 215.13-16.82 215.13-14.4 213.9-12.75 212.68-11.1 210.93-10.2L210.93-10.2Q207.38-8.45 204.43-8L204.43-8 203.23-7.85Q203.58-3.15 207.08-3.15L207.08-3.15Q208.28-3.15 209.63-3.75 210.98-4.35 211.73-4.95L211.73-4.95 212.48-5.55 213.68-3.95Q213.28-3.4 212.08-2.5 210.88-1.6 209.83-1L209.83-1Q206.93 0.6 203.48 0.6 200.03 0.6 198.03-1.85 196.03-4.3 196.03-8.65ZM203.18-10.3Q205.73-10.75 207.23-12.45 208.73-14.15 208.73-16.85 208.73-19.55 207.13-19.55L207.13-19.55Q205.23-19.55 204.2-16.32 203.18-13.1 203.18-10.3L203.18-10.3ZM242.65 9.1Q240.47 10.45 238.8 10.83 237.12 11.2 235.17 11.2 233.22 11.2 231.85 10.05 230.47 8.9 230.47 7 230.47 5.1 231.75 3.55 233.02 2 234.82 1.1L234.82 1.1Q238.47-0.8 241.47-1.4L241.47-1.4 242.77-1.65Q242.82-1.85 243.37-3.65 243.92-5.45 244.17-6.45L244.17-6.45Q237.82-2.65 233.72-2.65L233.72-2.65Q231.27-2.65 229.67-4.23 228.07-5.8 228.07-8.72 228.07-11.65 229.97-19.28 231.87-26.9 231.87-29.45L231.87-29.45Q231.87-31.1 230.37-33.2L230.37-33.2 229.87-33.9 230.02-34.65Q233.02-35.5 239.27-35.5L239.27-35.5Q239.97-34 239.97-31.45 239.97-28.9 238.07-20.68 236.17-12.45 236.17-11.15L236.17-11.15Q236.17-8.5 237.97-8.5L237.97-8.5Q241.37-8.5 245.22-10.45L245.22-10.45Q248.27-23 249.37-34.15L249.37-34.15Q251.92-35.45 256.37-35.45L256.37-35.45 257.32-35.45Q257.32-32.8 256.42-28.1L256.42-28.1Q255.27-22.15 252.87-10.1L252.87-10.1Q251.82-4.7 250.12-0.68 248.42 3.35 246.62 5.55 244.82 7.75 242.65 9.1ZM235.17 7.85L235.17 7.85Q236.92 7.85 238.82 5.93 240.72 4 241.92 1.35L241.92 1.35Q239.57 1.6 236.65 3.18 233.72 4.75 233.72 6.4L233.72 6.4Q233.72 7 234.15 7.43 234.57 7.85 235.17 7.85ZM265.22 0.6L265.22 0.6Q261.77 0.6 259.82-1.83 257.87-4.25 257.87-8.6L257.87-8.6Q257.87-14.15 260.85-18.15 263.82-22.15 269.07-22.15L269.07-22.15 270.87-22.05Q271.72-22.5 272.77-22.5L272.77-22.5Q276.72-22.5 276.72-15.05L276.72-15.05Q278.77-15.15 280.87-15.6L280.87-15.6 281.67-15.8 281.97-13.85Q280.32-13.15 277.52-12.6L277.52-12.6 276.52-12.4Q275.57-7.15 272.67-3.28 269.77 0.6 265.22 0.6ZM267.92-3.7L267.92-3.7Q270.02-3.7 271.7-6.4 273.37-9.1 274.02-12.1L274.02-12.1Q268.67-12.1 268.67-16.1L268.67-16.1Q268.67-17.7 269.32-19.1L269.32-19.1 269.57-19.6Q269.37-19.7 269.07-19.7 268.77-19.7 268.62-19.6L268.62-19.6Q267.37-18.8 266.27-15.85 265.17-12.9 265.17-9.1L265.17-9.1Q265.17-3.7 267.92-3.7ZM278.57-3.78Q278.57-5.9 279.87-11.08 281.17-16.25 281.17-17.43 281.17-18.6 279.37-20.55L279.37-20.55 279.42-21.2Q282.82-21.9 288.37-21.9L288.37-21.9Q288.62-21.25 288.62-19.55 288.62-17.85 287.22-12.3 285.82-6.75 285.82-5.4 285.82-4.05 286.82-4.05L286.82-4.05Q288.27-4.05 290.17-5.1L290.17-5.1Q290.37-6.3 291.17-9.7L291.17-9.7Q292.97-17.7 292.97-21.15L292.97-21.15Q294.72-21.85 299.27-21.85L299.27-21.85 300.22-21.85Q300.22-19.5 298.82-12.68 297.42-5.85 297.42-4.67 297.42-3.5 297.92-3.5L297.92-3.5Q298.22-3.5 300.77-4.7L300.77-4.7 301.72-3.1Q297.27 0.6 293.92 0.6L293.92 0.6Q292.32 0.6 291.19-0.3 290.07-1.2 289.92-2.65L289.92-2.65Q285.87 0.65 282.57 0.65L282.57 0.65Q280.82 0.65 279.69-0.5 278.57-1.65 278.57-3.78ZM304.12 0.15L304.12 0.15 303.77 0.15Q303.67-0.25 303.67-1.68 303.67-3.1 305.02-9.35 306.37-15.6 306.37-16.5L306.37-16.5Q306.37-18.05 304.97-19.9L304.97-19.9 304.52-20.5 304.57-21.15Q307.27-21.9 313.22-21.9L313.22-21.9Q313.82-20.6 313.82-18.25L313.82-18.25Q314.37-19.15 316.12-20.65 317.87-22.15 319.72-22.15L319.72-22.15Q322.42-22.15 322.42-17.45L322.42-17.45Q322.17-17.15 321.74-16.68 321.32-16.2 320.04-15.35 318.77-14.5 317.57-14.3L317.57-14.3Q317.52-14.3 316.72-15.65 315.92-17 315.52-17L315.52-17Q314.27-16.55 313.32-15.5L313.32-15.5Q311.02-5.15 311.02-2.1L311.02-2.1Q311.02-1 311.07-0.55L311.07-0.55Q309.32 0.15 304.12 0.15ZM336.61-35.5L336.61-35.5 353.31-34.95 358.01-35.05Q358.16-34 358.16-32.85 358.16-31.7 357.76-31.2 357.36-30.7 356.31-30.7L356.31-30.7Q356.21-30.7 349.26-31.35L349.26-31.35Q349.06-29.1 347.76-23.65 346.46-18.2 345.26-12 344.06-5.8 344.01-0.85L344.01-0.85Q342.06 0.15 336.01 0.15L336.01 0.15 335.66 0.15Q335.66-2.45 338.51-15.35 341.36-28.25 341.36-31.05L341.36-31.05Q341.36-31.25 341.26-31.75L341.26-31.75 339.26-31.75Q335.16-31.75 332.96-30.5L332.96-30.5Q331.81-32 331.56-34.9L331.56-34.9Q333.26-35.5 336.61-35.5ZM371.16-20.7L371.16-20.7Q371.26-20.8 371.71-22L371.71-22Q374.06-22 378.01-20.6L378.01-20.6Q376.76-16.45 376.01-11.93 375.26-7.4 375.26-5.48 375.26-3.55 375.66-3.55L375.66-3.55Q375.96-3.55 377.86-4.5L377.86-4.5 378.46-4.8 379.36-3.05Q378.91-2.65 378.18-2.05 377.46-1.45 375.46-0.43 373.46 0.6 371.86 0.6L371.86 0.6Q368.76 0.6 368.26-2.2L368.26-2.2Q365.06 0.6 362.48 0.6 359.91 0.6 358.13-1.4 356.36-3.4 356.36-7.7L356.36-7.7Q356.36-14.4 359.11-18.28 361.86-22.15 365.76-22.15L365.76-22.15Q368.56-22.15 371.16-20.7ZM365.46-3.65L365.46-3.65Q366.66-3.65 368.16-4.6L368.16-4.6Q368.51-11.65 370.51-18.55L370.51-18.55Q369.01-19.2 367.96-19.2L367.96-19.2Q366.16-19.2 364.88-15.68 363.61-12.15 363.61-7.9 363.61-3.65 365.46-3.65ZM395.11-6.55L395.11-6.55Q395.11-3.4 392.33-1.4 389.56 0.6 386.01 0.6 382.46 0.6 380.38-0.9 378.31-2.4 378.31-3.55L378.31-3.55Q378.31-4.25 380.06-5.83 381.81-7.4 383.01-7.75L383.01-7.75Q385.51-5.9 387.11-1.9L387.11-1.9Q388.96-2.05 388.96-3.65L388.96-3.65Q388.96-5.95 384.91-10.18 380.86-14.4 380.86-16.9 380.86-19.4 383.11-20.78 385.36-22.15 388.53-22.15 391.71-22.15 393.31-21.03 394.91-19.9 394.91-17.98 394.91-16.05 391.86-12.65L391.86-12.65Q392.21-12.3 392.76-11.73 393.31-11.15 394.21-9.55 395.11-7.95 395.11-6.55ZM390.31-14.4Q392.41-16.2 392.41-17.95 392.41-19.7 390.01-19.7L390.01-19.7Q388.86-19.7 388.11-19.23 387.36-18.75 387.36-18.15L387.36-18.15Q387.36-17.05 389.56-15.05L389.56-15.05 390.31-14.4ZM408.2-21.55L413.05-21.55Q412.95-20.3 412.2-18.65L412.2-18.65Q410.3-18.85 408.6-18.85L408.6-18.85 407.7-18.85Q405.4-7.7 405.4-4.95L405.4-4.95Q405.4-3.5 406.03-3.5 406.65-3.5 409.35-4.75L409.35-4.75 410.25-3.1Q405.8 0.6 402 0.6L402 0.6Q400.25 0.6 399.13-0.5 398-1.6 398-3.43 398-5.25 398.43-7.55 398.85-9.85 399.6-13.18 400.35-16.5 400.7-18.55L400.7-18.55Q398.85-18.4 397.95-18.25L397.95-18.25Q397.85-18.85 397.85-19.88 397.85-20.9 398-21.55L398-21.55 401.15-21.55Q401.55-24.25 401.55-26.65L401.55-26.65 401.5-28.2 401.5-28.35Q405.4-29.7 408.85-29.7L408.85-29.7Q409.05-28.7 409.05-27.2 409.05-25.7 408.2-21.55L408.2-21.55ZM411.95-8.65L411.95-8.65Q411.95-14.9 415.73-18.53 419.5-22.15 424.3-22.15L424.3-22.15Q427.25-22.15 429.15-20.7 431.05-19.25 431.05-16.82 431.05-14.4 429.83-12.75 428.6-11.1 426.85-10.2L426.85-10.2Q423.3-8.45 420.35-8L420.35-8 419.15-7.85Q419.5-3.15 423-3.15L423-3.15Q424.2-3.15 425.55-3.75 426.9-4.35 427.65-4.95L427.65-4.95 428.4-5.55 429.6-3.95Q429.2-3.4 428-2.5 426.8-1.6 425.75-1L425.75-1Q422.85 0.6 419.4 0.6 415.95 0.6 413.95-1.85 411.95-4.3 411.95-8.65ZM419.1-10.3Q421.65-10.75 423.15-12.45 424.65-14.15 424.65-16.85 424.65-19.55 423.05-19.55L423.05-19.55Q421.15-19.55 420.13-16.32 419.1-13.1 419.1-10.3L419.1-10.3Z" opacity="1" transform="matrix(1,0,0,1,0,0)" fill="#fff" class="undefined-text-1" data-fill-palette-color="secondary" id="text-1"></path></svg></g></svg></g></svg></g></svg></g></svg></g></svg></g></svg></g><g><path d="M0 123.6c0-68.262 55.338-123.6 123.6-123.6 35.51 0 67.522 14.974 90.066 38.953l-6.558 0c-21.471-21.184-50.963-34.26-83.508-34.26-65.67 0-118.907 53.236-118.907 118.907 0 65.67 53.236 118.907 118.907 118.907 32.546 0 62.037-13.075 83.508-34.26h6.558c-22.544 23.979-54.557 38.953-90.066 38.953-68.262 0-123.6-55.338-123.6-123.6z" fill="#fff" stroke="transparent" data-fill-palette-color="tertiary"></path></g></svg></g><defs></defs></svg><rect width="395.52" height="247.2" fill="none" stroke="none" visibility="hidden"></rect></g></svg></g></svg>